# xmcd
# 
# Track frame offsets:
#     150
#     20683
#     33113
#     51241
#     68772
#     88316
#     107945
#     126186
#     144660
#     159543
# 
# Disc length: 2356
# 
# Revision: 0
# Processed by: cddbd v1.5.2PL0 Copyright (c) Steve Scherf et al.
# Submitted via: fre:ac v1.0.27
# 
DISCID=8c09320a
DTITLE=Ryan Chrys - A Lick And A Promise
DYEAR=2013
DGENRE=Country
TTITLE0=01 This Road Never Ends
TTITLE1=02 Give
TTITLE2=03 My Town
TTITLE3=04 Perfect Company
TTITLE4=05 A Life Ago
TTITLE5=06 Stand and Be Counted
TTITLE6=07 Queen of My Heart
TTITLE7=08 When Love Fades
TTITLE8=09 Don't Let it Go
TTITLE9=10 Winding Road
EXTD=
EXTT0=
EXTT1=
EXTT2=
EXTT3=
EXTT4=
EXTT5=
EXTT6=
EXTT7=
EXTT8=
EXTT9=
PLAYORDER=
